<?xml version="1.0" standalone="no"?>
<svg xmlns:xlink="http://www.w3.org/1999/xlink" id="svg" width="640" height="640" xmlns="http://www.w3.org/2000/svg"><defs><marker id="startDefs" orient="auto" markerWidth="3" markerHeight="3" refX="-0.50" refY="0.5">
<!-- triangle pointing right (+x) -->
<path d="M0,0 V1 A 0.85 0.85, 0, 0, 1 1.21  1 V0 A 0.85 0.85, 0, 0, 1 0 0 Z" fill="rgba(60, 80, 255, 1)"/>
</marker></defs><path d="M240,327.5 h0 a72.5,72.5 0 0 1 72.5,72.5 v0 a72.5,72.5 0 0 1 -72.5,72.5 h-0  a72.5,72.5 0 0 1 -72.5,-72.5 v-0 a72.5,72.5 0 0 1 72.5,-72.5 z" fill="rgba(60, 80, 255, 1)"/><path d="M80,167.5 h0 a72.5,72.5 0 0 1 72.5,72.5 v0 a72.5,72.5 0 0 1 -72.5,72.5 h-0  a72.5,72.5 0 0 1 -72.5,-72.5 v-0 a72.5,72.5 0 0 1 72.5,-72.5 z" fill="rgba(60, 80, 255, 1)"/><line id="line2" x1="240" y1="400" x2="80" y2="240" marker-start="url(#startDefs)" stroke-width="102.5304832720494" stroke=""/><path d="M80,167.5 h0 a72.5,72.5 0 0 1 72.5,72.5 v0 a72.5,72.5 0 0 1 -72.5,72.5 h-0  a72.5,72.5 0 0 1 -72.5,-72.5 v-0 a72.5,72.5 0 0 1 72.5,-72.5 z" fill="rgba(60, 80, 255, 1)"/><path d="M240,7.5 h0 a72.5,72.5 0 0 1 72.5,72.5 v0 a72.5,72.5 0 0 1 -72.5,72.5 h-0  a72.5,72.5 0 0 1 -72.5,-72.5 v-0 a72.5,72.5 0 0 1 72.5,-72.5 z" fill="rgba(60, 80, 255, 1)"/><line id="line2" x1="80" y1="240" x2="240" y2="80" marker-start="url(#startDefs)" stroke-width="102.5304832720494" stroke=""/><path d="M240,7.5 h0 a72.5,72.5 0 0 1 72.5,72.5 v0 a72.5,72.5 0 0 1 -72.5,72.5 h-0  a72.5,72.5 0 0 1 -72.5,-72.5 v-0 a72.5,72.5 0 0 1 72.5,-72.5 z" fill="rgba(60, 80, 255, 1)"/><path d="M400,167.5 h0 a72.5,72.5 0 0 1 72.5,72.5 v0 a72.5,72.5 0 0 1 -72.5,72.5 h-0  a72.5,72.5 0 0 1 -72.5,-72.5 v-0 a72.5,72.5 0 0 1 72.5,-72.5 z" fill="rgba(60, 80, 255, 1)"/><line id="line2" x1="240" y1="80" x2="400" y2="240" marker-start="url(#startDefs)" stroke-width="102.5304832720494" stroke=""/><path d="M400,167.5 h0 a72.5,72.5 0 0 1 72.5,72.5 v0 a72.5,72.5 0 0 1 -72.5,72.5 h-0  a72.5,72.5 0 0 1 -72.5,-72.5 v-0 a72.5,72.5 0 0 1 72.5,-72.5 z" fill="rgba(60, 80, 255, 1)"/><path d="M240,327.5 h0 a72.5,72.5 0 0 1 72.5,72.5 v0 a72.5,72.5 0 0 1 -72.5,72.5 h-0  a72.5,72.5 0 0 1 -72.5,-72.5 v-0 a72.5,72.5 0 0 1 72.5,-72.5 z" fill="rgba(60, 80, 255, 1)"/><line id="line2" x1="400" y1="240" x2="240" y2="400" marker-start="url(#startDefs)" stroke-width="102.5304832720494" stroke=""/><path d="M240,327.5 h0 a72.5,72.5 0 0 1 72.5,72.5 v0 a72.5,72.5 0 0 1 -72.5,72.5 h-0  a72.5,72.5 0 0 1 -72.5,-72.5 v-0 a72.5,72.5 0 0 1 72.5,-72.5 z" fill="rgba(60, 80, 255, 1)"/><path d="M240,167.5 h0 a72.5,72.5 0 0 1 72.5,72.5 v0 a72.5,72.5 0 0 1 -72.5,72.5 h-0  a72.5,72.5 0 0 1 -72.5,-72.5 v-0 a72.5,72.5 0 0 1 72.5,-72.5 z" fill="rgba(60, 80, 255, 1)"/><line id="line2" x1="240" y1="400" x2="240" y2="240" marker-start="" stroke-width="145" stroke="rgba(60, 80, 255, 1)"/><path d="M240,487.5 h0 a72.5,72.5 0 0 1 72.5,72.5 v0 a72.5,72.5 0 0 1 -72.5,72.5 h-0  a72.5,72.5 0 0 1 -72.5,-72.5 v-0 a72.5,72.5 0 0 1 72.5,-72.5 z" fill="rgba(60, 80, 255, 1)"/><path d="M400,327.5 h0 a72.5,72.5 0 0 1 72.5,72.5 v0 a72.5,72.5 0 0 1 -72.5,72.5 h-0  a72.5,72.5 0 0 1 -72.5,-72.5 v-0 a72.5,72.5 0 0 1 72.5,-72.5 z" fill="rgba(60, 80, 255, 1)"/><line id="line2" x1="240" y1="560" x2="400" y2="400" marker-start="url(#startDefs)" stroke-width="102.5304832720494" stroke=""/><path d="M240,487.5 h0 a72.5,72.5 0 0 1 72.5,72.5 v0 a72.5,72.5 0 0 1 -72.5,72.5 h-0  a72.5,72.5 0 0 1 -72.5,-72.5 v-0 a72.5,72.5 0 0 1 72.5,-72.5 z" fill="rgba(60, 80, 255, 1)"/><path d="M80,327.5 h0 a72.5,72.5 0 0 1 72.5,72.5 v0 a72.5,72.5 0 0 1 -72.5,72.5 h-0  a72.5,72.5 0 0 1 -72.5,-72.5 v-0 a72.5,72.5 0 0 1 72.5,-72.5 z" fill="rgba(60, 80, 255, 1)"/><line id="line2" x1="240" y1="560" x2="80" y2="400" marker-start="url(#startDefs)" stroke-width="102.5304832720494" stroke=""/></svg>