<svg width="100" height="100" viewBox="0 0 100 100" fill="none" xmlns="http://www.w3.org/2000/svg">
<path d="M50 0L52 0L52 39C52 39.5523 51.5523 40 51 40V40C50.4477 40 50 39.5523 50 39L50 0Z" fill="#686868" fill-opacity="0.8"/>
<path d="M50 61C50 60.4477 50.4477 60 51 60V60C51.5523 60 52 60.4477 52 61L52 100H50L50 61Z" fill="#686868" fill-opacity="0.8"/>
<path d="M0 50L39 50C39.5523 50 40 50.4477 40 51V51C40 51.5523 39.5523 52 39 52L-1.11272e-07 52L0 50Z" fill="#686868" fill-opacity="0.8"/>
<path d="M60 51C60 50.4477 60.4477 50 61 50L100 50L100 52L61 52C60.4477 52 60 51.5523 60 51V51Z" fill="#686868" fill-opacity="0.8"/>
</svg>
